<svg xmlns="http://www.w3.org/2000/svg" viewBox="0 0 108 108"><title>Fire V2</title><g id="Layer_4" data-name="Layer 4"><rect width="108" height="108" rx="10" ry="10" fill="none"/><path d="M581.34,955.19A43.78,43.78,0,0,0,550,926.86l-1.21-.27a12.15,12.15,0,0,1-5.89-19.75,31.71,31.71,0,0,0,5,59.16A31.7,31.7,0,0,1,519,934.43a32,32,0,0,1,.19-3.45,43.7,43.7,0,1,0,62.16,24.21Zm-22.59,33a.89.89,0,0,1-.89.89h-2.28s0,.07,0,.1v16a1,1,0,0,1-1,1H543.69v-7.6a1,1,0,0,0-1-1h-5.37a1,1,0,0,0-1,1v7.6h-11a1,1,0,0,1-1-1v-16s0-.07,0-.1h-2.28a.89.89,0,0,1-.89-.89v-.89c0-.38.2-.59.57-.83h0L540,973.26l18.17,13.21h0c.37.24.57.45.57.83Z" transform="translate(-486 -906)" fill="red"/></g></svg>